<svg width="165" height="38" viewBox="0 0 165 38" fill="none" xmlns="http://www.w3.org/2000/svg">
<path d="M14.968 16.0395C14.8035 15.1347 14.0632 14.4767 13.2406 14.4767C12.4181 14.4767 11.7601 14.7234 11.3488 15.4637C10.9375 16.204 11.0197 17.0266 11.5133 17.6846C11.6778 17.9314 11.6778 18.0959 11.5133 18.2604C10.6085 19.3297 9.45692 19.6587 8.14085 19.4942C6.49577 19.2474 5.42648 18.1781 4.76844 16.6975C3.86365 14.7234 3.78135 12.5848 4.11037 10.4462C4.35713 9.13013 4.76842 7.97857 5.67322 6.99152C7.1538 5.26418 9.95044 5.26418 11.2665 6.82701C11.5133 7.07377 11.5955 7.23828 11.2665 7.5673C10.773 8.22534 10.773 9.13013 11.1843 9.87042C11.5955 10.5285 12.4181 10.8575 13.2406 10.693C13.9809 10.5285 14.5567 9.87042 14.7212 9.04788C14.968 7.97857 14.5567 6.99152 13.9809 6.16898C12.1713 3.70134 8.55215 2.71429 5.59099 3.86585C2.54758 5.01741 0.902488 7.32054 0.244452 10.4462C0.0799437 10.8575 -0.16685 12.4203 0.162168 14.3944C0.902457 19.0007 4.52167 21.9618 8.71664 21.7151C10.9375 21.5505 12.7471 20.728 14.1454 18.9184C14.8857 18.0959 15.2147 17.1911 14.968 16.0395Z" fill="#2F5CA6"/>
<path d="M164.836 14.8058C164.836 14.3123 164.671 13.901 164.424 13.4897C164.178 13.1607 163.848 12.9139 163.602 12.6672C161.957 11.0221 160.229 9.45926 158.584 7.81417C157.268 6.58035 155.952 5.26428 154.636 4.03047C153.649 3.04341 152.662 2.22087 151.757 1.23382C151.675 1.15156 151.593 1.06931 151.51 1.06931C151.346 0.987052 151.181 0.904797 151.017 0.987052C150.852 1.15156 150.935 1.31607 151.017 1.48058C151.099 1.64509 151.264 1.8096 151.346 2.05636C152.004 2.96116 152.415 3.94821 152.744 5.01752C153.155 6.41584 153.238 7.81417 152.744 9.21249C151.839 11.5979 149.125 12.4204 147.151 10.8576C145.753 9.78827 145.259 7.89642 146.082 6.16908C146.411 5.42879 146.986 4.77076 147.562 4.11272C148.056 3.53694 148.138 3.04341 147.809 2.38538C147.562 1.89185 147.151 1.56283 146.74 1.23382C145.67 0.493526 144.519 0.0822544 143.285 0C143.203 0 143.12 0 143.038 0C142.709 0 142.38 0 142.133 0C142.051 0 141.969 0 141.887 0C141.887 0.0822544 141.804 0.0822531 141.722 0.0822531C140.735 0.246762 139.912 0.740289 139.172 1.39832C138.021 2.54989 137.445 3.94821 136.951 5.42879C136.046 8.30769 135.8 11.3511 135.717 14.3945C135.635 16.9444 135.8 19.4943 136.293 22.0442C136.622 23.936 137.116 25.7456 138.185 27.3907C139.419 29.3648 141.146 30.3519 143.532 30.0229C145.012 29.7761 146.328 29.3648 147.398 28.2133C148.056 27.473 148.302 26.7327 147.398 25.8279C146.411 24.9231 145.835 23.8538 145.753 22.4555C145.588 20.6459 146.904 18.8363 148.714 18.425C150.441 18.0137 152.251 18.9185 152.991 20.6459C153.567 21.9619 153.484 23.278 153.155 24.5941C152.826 26.0746 152.168 27.3085 151.346 28.5423C151.264 28.7068 151.099 28.8713 151.264 29.0358C151.428 29.2003 151.593 28.9535 151.675 28.8713C153.402 27.2262 155.13 25.4989 156.857 23.8538C159.324 21.5507 161.71 19.1653 164.178 16.8622C164.671 16.4509 164.918 15.8751 165 15.2993C164.918 15.1348 164.836 14.9703 164.836 14.8058Z" fill="#2F5CA6"/>
<path d="M119.431 15.0525C119.431 14.3122 119.678 13.7364 120.171 13.2429C122.886 10.6107 125.6 7.9786 128.315 5.42871C129.713 4.11264 131.111 2.71432 132.51 1.31599C132.674 1.15148 132.921 0.822466 133.168 0.986974C133.497 1.23374 133.085 1.4805 132.921 1.64501C130.7 4.44166 129.137 7.48507 128.479 11.022C127.41 17.1088 128.644 22.7844 132.427 27.7197C132.674 27.9664 132.839 28.2954 133.085 28.5422C133.168 28.7067 133.414 28.8712 133.25 29.0357C133.085 29.2002 132.921 29.0357 132.756 28.8712C131.769 27.9664 130.865 27.0616 129.877 26.1568C126.67 23.1134 123.544 20.07 120.336 16.9443C119.76 16.4508 119.349 15.875 119.431 15.0525Z" fill="#1BAEE5"/>
<path d="M95.1659 19.9054C94.4256 20.728 93.5208 21.3038 92.4515 21.5505C90.3129 21.9618 87.763 21.057 87.2695 17.9313C87.1872 17.191 87.105 16.4508 87.105 15.7105C87.105 14.6412 87.105 13.5718 87.105 12.5025C87.105 11.5155 86.776 11.1865 85.7889 11.1865C85.4599 11.1865 85.3776 11.1042 85.2954 10.7752C85.2131 10.3639 85.3776 9.95266 85.7066 9.62364C86.6114 8.8011 87.5985 8.47208 88.8323 8.63659C89.8194 8.71884 90.3952 9.37688 90.3952 10.5284C90.3952 11.9268 90.3952 13.3251 90.3952 14.7234C90.3952 15.7105 90.3951 16.6975 90.6419 17.6023C90.8064 18.3426 91.2177 18.9184 92.0402 19.0829C92.8628 19.2474 93.6853 19.0829 94.3434 18.4249C94.9191 17.7668 95.0837 16.9443 95.0837 16.1217C95.0837 14.8879 95.0837 13.7364 95.0837 12.5025C95.0837 11.5977 94.6724 11.2687 93.8499 11.351C93.4386 11.351 93.3563 11.1865 93.2741 10.8575C93.2741 10.4462 93.3563 10.1172 93.6031 9.8704C94.5902 8.88335 95.7417 8.55433 97.0577 8.88335C97.8803 9.04786 98.2916 9.78815 98.2916 10.7752C98.2916 11.5977 98.2916 12.4203 98.2916 13.2428C98.2916 14.8057 98.2916 16.3685 98.2916 17.9313C98.2916 18.0958 98.2916 18.2603 98.2916 18.4249C98.4561 19.1651 98.7851 19.5764 99.6077 19.4942C99.9367 19.4942 100.019 19.5764 100.101 19.9054C100.183 20.399 99.9367 20.8102 99.6077 21.1393C98.7029 21.715 97.7158 21.9618 96.7288 21.8795C96.153 21.7973 95.7417 21.4683 95.5772 20.9747C95.4127 20.4812 95.3304 20.2345 95.1659 19.9054Z" fill="#2F5CA6"/>
<path d="M68.1865 14.6412C68.1865 15.6283 68.1042 16.9444 68.2687 18.1782C68.351 19.083 68.5978 19.412 69.5026 19.5765C69.8316 19.6588 70.1606 19.6588 70.2429 20.1523C70.2429 20.5636 70.1606 20.8926 69.6671 21.1393C69.009 21.4684 68.2688 21.4684 67.5285 21.4684C66.3769 21.4684 65.3076 21.5506 64.156 21.2216C63.498 20.9748 63.2512 20.5636 63.498 19.9878C63.5803 19.8233 63.6625 19.741 63.827 19.6588C64.7318 19.412 64.9786 19.083 64.9786 18.0959C64.9786 15.7106 64.9786 13.4074 64.9786 11.0221C64.9786 10.7753 64.8963 10.693 64.7318 10.693C64.3205 10.693 63.9093 10.693 63.498 10.693C63.2512 10.693 63.0867 10.6108 63.0045 10.2818C62.84 9.45922 63.2512 8.80119 64.156 8.80119C64.9786 8.80119 64.9786 8.80119 64.9786 7.97865C64.9786 7.1561 65.0609 6.41581 65.2254 5.67552C65.6366 4.19494 66.6237 3.12564 68.1865 2.79662C69.7493 2.38535 71.2299 2.54986 72.6283 3.29014C73.5331 3.78367 74.1088 4.44171 74.1088 5.51101C74.1088 6.2513 73.7798 6.82708 73.1218 7.1561C72.4637 7.40286 71.8879 7.32061 71.3122 6.82708C70.8186 6.33356 70.6542 5.67552 70.9832 4.93523C71.0654 4.68847 70.9832 4.60622 70.8187 4.52396C69.7494 4.11269 68.4333 4.2772 68.1865 5.92229C68.1043 6.74483 68.1865 7.64963 68.1043 8.47217C68.1043 8.71893 68.2688 8.71893 68.4333 8.71893C69.2558 8.71893 70.1606 8.71893 70.9832 8.71893C71.2299 8.71893 71.3944 8.80119 71.4767 9.04795C71.7234 9.95275 71.1477 10.693 70.2429 10.693C69.7493 10.693 69.1735 10.693 68.68 10.693C68.351 10.693 68.2687 10.7753 68.2687 11.1043C68.1865 12.2559 68.1865 13.3252 68.1865 14.6412Z" fill="#2F5CA6"/>
<path d="M105.777 10.1995C106.188 9.62371 106.599 9.21244 107.093 8.88342C107.833 8.3899 108.656 8.22539 109.56 8.63666C110.547 9.04793 110.959 10.1995 110.465 11.2688C110.054 12.1736 108.985 12.5026 108.162 12.0091C107.833 11.8446 107.586 11.5978 107.504 11.2688C107.422 10.9398 107.257 11.022 107.011 11.1865C106.435 11.5978 106.27 12.2559 106.106 12.9139C106.023 13.3252 105.941 13.8187 105.941 14.23C105.941 15.546 105.941 16.8621 105.941 18.2604C105.941 19.1652 106.188 19.412 107.093 19.5765C107.504 19.6588 107.669 19.8233 107.751 20.2345C107.751 20.6458 107.586 20.9748 107.175 21.1393C107.011 21.2216 106.846 21.3038 106.682 21.3038C105.201 21.5506 103.72 21.5506 102.24 21.2216C101.417 21.0571 101.17 20.5635 101.335 19.9055C101.417 19.741 101.5 19.6588 101.664 19.5765C102.487 19.3297 102.733 19.0007 102.816 18.0959C102.816 16.1218 102.816 14.1477 102.816 12.1736C102.816 11.2688 102.404 11.022 101.499 11.1043C101.17 11.1865 101.088 11.022 101.006 10.7753C100.924 10.2817 101.006 9.87048 101.335 9.45921C102.075 8.71892 103.062 8.3899 104.132 8.47215C104.707 8.55441 105.119 8.96568 105.365 9.45921C105.612 9.78822 105.694 9.95273 105.777 10.1995Z" fill="#2F5CA6"/>
<path d="M35.038 10.1995C35.4492 9.6237 35.8605 9.13018 36.5185 8.80116C37.3411 8.30763 38.1636 8.22538 39.0684 8.7189C39.891 9.21243 40.22 10.1995 39.8087 11.1043C39.4797 11.9268 38.6571 12.3381 37.8346 12.1736C37.2588 12.0091 36.9298 11.7623 36.6831 11.1865C36.6008 10.9398 36.5185 10.9398 36.354 11.1043C35.8605 11.4333 35.6138 11.9268 35.4492 12.4204C35.2847 12.9139 35.2025 13.4897 35.2025 13.9832C35.2025 15.2993 35.2025 16.6976 35.2025 18.0137C35.2025 19.0007 35.5315 19.412 36.5185 19.5765C36.8476 19.6587 37.0121 19.8232 37.0943 20.1523C37.1766 20.4813 37.0943 20.8103 36.7653 20.9748C36.4363 21.2216 36.025 21.3038 35.5315 21.3038C34.2154 21.3861 32.8993 21.4683 31.5833 21.1393C30.843 20.9748 30.514 20.4813 30.6785 19.9055C30.7608 19.741 30.843 19.5765 31.0898 19.4942C31.9123 19.2475 32.159 18.9184 32.2413 18.0137C32.2413 16.0395 32.2413 14.1477 32.2413 12.1736C32.2413 11.2688 31.83 10.9398 30.9253 11.1043C30.5962 11.1865 30.5139 11.022 30.4317 10.7753C30.3494 10.2817 30.514 9.78821 30.9253 9.4592C31.501 8.88341 32.2413 8.63665 33.0638 8.5544C34.0509 8.47214 34.5444 8.88341 34.9557 9.70596C34.9557 9.87047 34.9557 10.035 35.038 10.1995Z" fill="#2F5CA6"/>
<path d="M45.5667 10.1996C45.8134 9.87055 46.0602 9.62379 46.307 9.37703C47.1295 8.63674 48.0343 8.22547 49.1036 8.55448C50.4197 8.96576 50.9132 10.5286 50.0084 11.5979C49.2682 12.5849 47.7053 12.3382 47.2118 11.2689C47.0473 10.9399 46.965 10.9399 46.7183 11.1044C46.2247 11.4334 45.978 11.9269 45.8957 12.5027C45.7312 12.914 45.7312 13.4075 45.7312 13.901C45.7312 15.2993 45.7312 16.7799 45.7312 18.1782C45.7312 19.083 46.0602 19.4121 46.8827 19.5766C47.294 19.6588 47.4586 19.8233 47.5408 20.2346C47.6231 20.6459 47.4585 20.9749 47.0473 21.1394C46.7182 21.3039 46.307 21.3862 45.978 21.3862C44.6619 21.4684 43.4281 21.5507 42.112 21.3039C41.8652 21.2217 41.6185 21.1394 41.3717 20.9749C41.125 20.7281 41.0427 20.4814 41.1249 20.1524C41.2072 19.8233 41.2895 19.6588 41.6185 19.5766C42.2765 19.4121 42.6055 19.0008 42.6055 18.3428C42.6878 16.2864 42.6055 14.23 42.6055 12.1737C42.6055 12.0914 42.6055 12.0914 42.6055 12.0092C42.5233 11.2689 42.112 11.0221 41.454 11.1044C40.9604 11.1866 40.8782 11.1044 40.8782 10.6108C40.8782 10.1173 41.0427 9.70605 41.3717 9.45928C42.112 8.80125 43.0168 8.47223 44.0038 8.55448C44.6619 8.63674 45.0732 9.04801 45.3199 9.54154C45.4022 9.7883 45.4844 9.95281 45.5667 10.1996Z" fill="#2F5CA6"/>
<path d="M85.8712 29.0358C86.447 28.3777 87.105 27.8842 87.9276 27.8019C89.7372 27.5552 91.3 28.2955 91.3 30.5163C91.3 32.4904 91.3 34.3823 91.3 36.3564C91.3 36.6854 91.2177 36.7677 90.8887 36.6854C90.4774 36.6854 89.9839 36.6854 89.5727 36.6854C89.2437 36.6854 89.1614 36.6032 89.1614 36.2741C89.1614 34.5468 89.1614 32.8195 89.1614 31.1744C89.1614 31.0099 89.1614 30.7631 89.1614 30.5986C89.0791 29.5293 88.3389 29.0358 87.2696 29.447C86.5293 29.6938 86.118 30.3518 86.118 31.2566C86.118 32.9017 86.118 34.6291 86.118 36.2741C86.118 36.6032 86.0357 36.7677 85.7067 36.6854C85.2954 36.6854 84.8842 36.6854 84.4729 36.6854C84.1439 36.6854 84.0616 36.6032 84.0616 36.2741C84.0616 34.3823 84.0616 32.4904 84.0616 30.5986C84.0616 29.8583 84.0616 29.0358 83.9794 28.2955C83.8971 27.9664 83.9793 27.8842 84.3084 27.8842C84.6374 27.8842 84.9664 27.8842 85.2954 27.8842C85.5422 27.8842 85.7067 27.9664 85.7067 28.2132C85.789 28.5422 85.789 28.789 85.8712 29.0358Z" fill="#1BAEE5"/>
<path d="M93.1918 32.4082C93.1918 31.1744 93.4386 30.0228 94.2611 29.0358C95.7417 27.2262 98.7851 27.3084 100.266 29.118C100.43 29.3648 100.43 29.447 100.183 29.6115C99.9367 29.7761 99.6077 30.0228 99.3609 30.2696C99.1964 30.4341 99.0319 30.4341 98.8674 30.2696C98.4561 29.8583 98.0448 29.5293 97.3868 29.447C96.482 29.3648 95.7417 29.8583 95.4127 30.8454C95.1659 31.8324 95.1659 32.7372 95.4127 33.7243C95.7417 35.0403 96.811 35.5339 98.0448 35.2871C98.4561 35.2048 98.8674 35.0403 99.1964 34.7936C99.3609 34.6291 99.4431 34.7113 99.5254 34.8758C99.6899 35.1226 99.7721 35.3694 99.9367 35.6161C100.183 35.9451 100.101 36.1919 99.7722 36.3564C98.3739 37.179 96.8932 37.3435 95.4127 36.7677C94.0143 36.2742 93.4386 35.1226 93.1918 33.7243C93.1918 33.2307 93.1096 32.8195 93.1918 32.4082Z" fill="#1BAEE5"/>
<path d="M28.869 19.5765C28.7867 19.5765 28.6222 19.4942 28.54 19.4942C27.8819 19.2475 27.7174 19.0007 27.7174 18.3427C27.7174 16.9443 27.7174 15.546 27.7174 14.1477C27.7174 13.4074 27.7174 12.5849 27.6352 11.8446C27.5529 10.1995 26.7304 9.21244 25.1675 8.71891C24.016 8.38989 22.8644 8.30764 21.7129 8.47215C20.8081 8.5544 19.9032 8.80116 19.0807 9.29469C18.5049 9.62371 18.0114 10.1172 17.8469 10.8575C17.6824 11.5156 17.8469 12.1736 18.4227 12.6671C18.9985 13.0784 19.5742 13.1606 20.2323 12.8316C20.8903 12.5026 21.1371 11.9268 21.1371 11.2688C21.1371 11.1043 20.9726 10.8575 21.1371 10.693C21.3016 10.5285 21.5483 10.5285 21.7951 10.5285C21.9596 10.5285 22.1241 10.4463 22.2886 10.4463C23.5225 10.2817 24.4272 10.8575 24.674 11.9268C24.8385 12.5849 24.7563 13.3252 24.7563 13.9832C24.5918 13.9832 24.5095 13.9009 24.4272 13.9009C22.6999 13.4074 20.9725 13.4074 19.3275 14.1477C17.1888 15.0525 16.3663 17.2734 17.3534 19.3297C18.1759 20.8926 19.5742 21.6328 21.3016 21.7151C22.6177 21.7974 23.8515 21.3038 24.9208 20.4813C25.0853 20.3168 25.1676 20.3168 25.3321 20.5635C25.8256 21.3038 26.4836 21.6328 27.3884 21.7151C28.4577 21.7974 29.2803 21.3038 29.527 20.4813C29.4448 19.741 29.4448 19.741 28.869 19.5765ZM24.345 18.3427C23.8515 18.8362 23.358 19.1652 22.6999 19.2475C21.5484 19.412 20.5613 18.9185 20.2323 17.9314C19.821 16.7798 20.3968 15.7105 21.6306 15.4638C22.2887 15.2993 22.9467 15.2993 23.5225 15.546C24.2628 15.7928 24.5095 16.1218 24.5095 16.8621C24.5095 17.0266 24.5095 17.1089 24.5095 17.2734C24.4273 17.6024 24.674 18.0137 24.345 18.3427Z" fill="#2F5CA6"/>
<path d="M78.386 8.47217C74.6846 8.47217 71.8057 11.3511 71.8057 15.0525C71.8057 18.8362 74.52 21.6329 78.3037 21.6329C82.1697 21.6329 84.8841 18.8362 84.8841 15.0525C84.8018 11.1043 82.1697 8.47217 78.386 8.47217ZM80.9359 17.6024C80.4424 18.8362 79.5376 19.5765 78.386 19.4943C77.4812 19.4943 76.9054 19.0007 76.4119 18.3427C75.8361 17.5202 75.5894 16.5331 75.5071 15.546C75.4249 14.3945 75.4249 13.2429 75.9184 12.1736C76.3297 11.1866 76.9877 10.4463 78.1392 10.364C79.2908 10.2818 80.0311 10.8575 80.6068 11.7623C81.1826 12.7494 81.3472 13.901 81.3472 15.3815C81.2649 16.0396 81.1826 16.8621 80.9359 17.6024Z" fill="#2F5CA6"/>
<path d="M54.2856 15.1348C55.4372 15.1348 56.5888 15.1348 57.8226 15.1348C58.9742 15.1348 60.0435 15.1348 61.195 15.1348C61.6063 15.1348 61.8531 14.9703 61.9353 14.6413C62.6756 12.5849 61.5241 9.95277 59.4677 8.96572C57.2468 7.97866 54.2034 8.47219 52.4761 10.1995C50.9955 11.5979 50.502 13.4075 50.502 15.3816C50.5842 17.7669 51.6535 19.6588 53.7099 20.8103C55.9308 21.9619 58.1516 21.8797 60.3725 20.7281C61.0305 20.3991 61.524 19.8233 61.6885 19.083C61.7708 18.5895 61.7708 18.096 61.3595 17.6847C61.2773 17.6024 61.1128 17.5202 60.9483 17.6847C59.9612 18.6717 58.8097 19.083 57.4113 19.0008C55.4372 18.9185 54.0389 17.5202 53.7921 15.6283C53.7921 15.2171 53.8744 15.1348 54.2856 15.1348ZM56.1775 10.4463C57.6581 10.1995 58.9742 11.3511 58.8919 12.8317C58.8919 13.1607 58.7274 13.3252 58.3984 13.3252C57.6581 13.3252 57.0001 13.3252 56.2598 13.3252C55.5195 13.3252 54.8615 13.3252 54.1212 13.3252C53.9567 13.3252 53.7921 13.3252 53.7921 13.0784C53.8744 11.7624 54.8615 10.6108 56.1775 10.4463Z" fill="#2F5CA6"/>
<path d="M72.2994 30.1051C71.8881 28.789 71.0656 27.9665 69.6672 27.802C68.7624 27.6375 67.8576 27.8842 67.0351 28.46C67.0351 27.3085 67.0351 26.1569 67.0351 25.0876C67.0351 24.8408 66.9529 24.6763 66.7061 24.7586C66.2126 24.7586 65.8013 24.7586 65.3078 24.7586C64.9787 24.7586 64.8965 24.8408 64.8965 25.1699C64.8965 28.789 64.8965 32.4082 64.8965 36.0274C64.8965 36.3565 64.9788 36.4387 65.2255 36.521C66.4593 37.0145 67.7754 37.179 69.0914 37.0145C70.4898 36.85 71.4768 36.1097 72.0526 34.7936C72.7107 33.2308 72.7929 31.6679 72.2994 30.1051ZM70.243 34.2178C69.8317 35.4517 68.2689 35.9452 67.1996 35.2049C67.0351 35.1226 67.1173 34.9581 67.0351 34.8759C67.0351 34.1356 67.0351 33.4775 67.0351 32.7373C67.0351 32.0792 67.0351 31.5034 67.0351 30.8454C67.0351 30.1051 67.3641 29.6116 68.0221 29.3648C68.7624 29.1181 69.5027 29.3648 69.914 29.9406C70.3253 30.4341 70.4075 31.0922 70.4898 31.7502C70.572 32.5728 70.4898 33.3953 70.243 34.2178Z" fill="#1BAEE5"/>
<path d="M81.8409 36.4386C81.7586 35.7806 81.7587 35.0403 81.7587 34.3C81.7587 32.4082 81.7587 30.5986 81.7587 28.7067C81.7587 28.46 81.7587 28.2955 81.5119 28.2132C80.4426 27.8842 79.3733 27.6374 78.2217 27.7197C76.4121 27.8842 75.0961 28.6245 74.5203 30.3518C74.0268 31.8324 73.9445 33.313 74.438 34.7936C74.8493 36.0274 75.6718 36.6854 76.9056 36.9322C78.1395 37.0967 79.1265 36.8499 79.9491 35.7806C79.9491 36.0274 80.0313 36.1919 80.0313 36.2741C80.0313 36.6032 80.1958 36.7677 80.5249 36.6854C80.8539 36.6032 81.1829 36.6854 81.5119 36.6854C81.7587 36.7677 81.9232 36.7677 81.8409 36.4386ZM79.6201 31.9147C79.6201 32.5727 79.6201 33.2307 79.6201 33.971C79.6201 34.629 79.2088 35.2048 78.4685 35.4516C77.7282 35.6984 76.9879 35.4516 76.5767 34.8758C76.3299 34.4645 76.1654 33.971 76.0831 33.5597C76.0008 32.7372 76.0009 31.9147 76.2476 31.0921C76.7411 29.3648 77.8927 29.118 79.291 29.447C79.5378 29.5293 79.5378 29.6115 79.5378 29.8583C79.62 30.5163 79.6201 31.2566 79.6201 31.9147Z" fill="#1BAEE5"/>
<path d="M108.82 30.5986C108.491 28.8713 107.504 27.9665 105.777 27.802C103.803 27.5552 101.911 28.3778 101.335 30.5986C101.171 31.1744 101.088 31.8324 101.088 32.4082C101.088 32.9018 101.088 33.3953 101.171 33.8066C101.335 34.8759 101.746 35.8629 102.733 36.4387C104.708 37.7548 107.504 36.9322 108.491 34.7936C109.067 33.3953 109.067 31.997 108.82 30.5986ZM106.435 34.4646C106.106 35.1226 105.612 35.5339 104.954 35.4516C104.214 35.4516 103.721 35.0404 103.556 34.3823C103.145 33.0663 103.063 31.7502 103.474 30.4341C103.638 29.8583 104.05 29.3648 104.708 29.2826C105.612 29.1181 106.27 29.5293 106.517 30.5164C106.682 31.0922 106.764 31.7502 106.764 32.326C106.764 33.0663 106.764 33.8066 106.435 34.4646Z" fill="#1BAEE5"/>
</svg>
